<?xml version="1.0" encoding="UTF-8" standalone="no"?>
<svg
   id="Layer_1"
   data-name="Layer 1"
   viewBox="0 0 122.88 122.88"
   version="1.1"
   sodipodi:docname="cross-icon.svg"
   inkscape:version="1.2.1 (9c6d41e410, 2022-07-14)"
   xmlns:inkscape="http://www.inkscape.org/namespaces/inkscape"
   xmlns:sodipodi="http://sodipodi.sourceforge.net/DTD/sodipodi-0.dtd"
   xmlns="http://www.w3.org/2000/svg"
   xmlns:svg="http://www.w3.org/2000/svg">
  <sodipodi:namedview
     id="namedview11"
     pagecolor="#ffffff"
     bordercolor="#000000"
     borderopacity="0.25"
     inkscape:showpageshadow="2"
     inkscape:pageopacity="0.0"
     inkscape:pagecheckerboard="0"
     inkscape:deskcolor="#d1d1d1"
     showgrid="false"
     inkscape:zoom="6.3151043"
     inkscape:cx="61.519174"
     inkscape:cy="77.27505"
     inkscape:window-width="1920"
     inkscape:window-height="974"
     inkscape:window-x="-11"
     inkscape:window-y="-11"
     inkscape:window-maximized="1"
     inkscape:current-layer="Layer_1" />
  <defs
     id="defs4">
    <style
       id="style2">.cls-1{fill:#ff4141;fill-rule:evenodd;}</style>
  </defs>
  <title
     id="title6">cross</title>
  <path
     class="cls-1"
     d="M6,6H6a20.53,20.53,0,0,1,29,0l26.5,26.49L87.93,6a20.54,20.54,0,0,1,29,0h0a20.53,20.53,0,0,1,0,29L90.41,61.44,116.9,87.93a20.54,20.54,0,0,1,0,29h0a20.54,20.54,0,0,1-29,0L61.44,90.41,35,116.9a20.54,20.54,0,0,1-29,0H6a20.54,20.54,0,0,1,0-29L32.47,61.44,6,34.94A20.53,20.53,0,0,1,6,6Z"
     id="path8"
     style="fill:#b30000;fill-opacity:1" />
</svg>
