<?xml version="1.0" encoding="UTF-8" standalone="no"?>
<svg
   height="120"
   viewBox="0 -960 4823.9999 4800"
   width="120.6"
   fill="#1f1f1f"
   version="1.1"
   id="svg4"
   xmlns="http://www.w3.org/2000/svg"
   xmlns:svg="http://www.w3.org/2000/svg">
  <defs
     id="defs8" />
  <path
     d="m 1752,3840 -96,-768 q -78,-30 -147,-72 -69,-42 -135,-90 L 660,3210 0,2070 618,1602 q -6,-42 -6,-81 v -162 q 0,-39 6,-81 L 0,810 660,-330 1374,-30 q 66,-48 138,-90 72,-42 144,-72 l 96,-768 h 1320 l 96,768 q 78,30 147,72 69,42 135,90 l 714,-300 660,1140 -618,468 q 6,42 6,81 v 162 q 0,39 -12,81 l 618,468 -660,1140 -708,-300 q -66,48 -138,90 -72,42 -144,72 l -96,768 z m 420,-480 h 474 l 84,-636 q 186,-48 345,-141 159,-93 291,-225 l 594,246 234,-408 -516,-390 q 30,-84 42,-177 12,-93 12,-189 0,-96 -12,-189 -12,-93 -42,-177 L 4194,684 3960,276 3366,528 Q 3234,390 3075,297 2916,204 2730,156 l -78,-636 h -474 l -84,636 q -186,48 -345,141 -159,93 -291,225 L 864,276 630,684 l 516,384 q -30,90 -42,180 -12,90 -12,192 0,96 12,186 12,90 42,180 l -516,390 234,408 594,-252 q 132,138 291,231 159,93 345,141 z m 252,-1080 q 348,0 594,-246 246,-246 246,-594 0,-348 -246,-594 -246,-246 -594,-246 -354,0 -597,246 -243,246 -243,594 0,348 243,594 243,246 597,246 z m -12,-840 z"
     id="path2"
     style="fill:#ffffff;fill-opacity:1;stroke-width:6" />
</svg>
